<svg version="1.1" viewBox="0 0 250 250" xmlns="http://www.w3.org/2000/svg">
 <g fill="none" fill-rule="evenodd">
  <g transform="matrix(.97995 .51134 -.97995 .51134 125 4.4e-6)">
   <rect width="122" height="122" fill="#e7e8e8"/>
   <path d="m82.429 11v14.286h14.286v14.286h14.286v71.429h-28.571v-28.571h-42.857v28.571h-28.571v-71.429h14.286v-14.286h14.286v-14.286zm-13.762 14h-14.333v14.333h-14.333v28.667h43v-28.667h-14.333z" fill="#000" fill-rule="nonzero"/>
  </g>
  <g transform="matrix(.98361 .51325 0 1.0265 5 62.151)">
   <rect width="122" height="122" fill="#b2b4b4"/>
   <polygon points="82.429 96.714 82.429 53.857 82.429 11 111 11 111 96.714 96.714 96.714 96.714 111 25.286 111 25.286 96.714 11 96.714 11 82.429 39.571 82.429 39.571 96.714" fill="#ed1978" fill-rule="nonzero"/>
  </g>
  <g transform="matrix(.98361 -.51325 0 1.0265 125 124.77)">
   <rect width="122" height="122" fill="#818282"/>
   <polygon points="25.286 53.857 11 53.857 11 25.286 25.286 25.286 25.286 18.143 25.286 11 82.429 11 82.429 25.286 96.714 25.286 96.714 39.571 68.143 39.571 68.143 25.286 39.571 25.286 39.571 53.857 96.714 53.857 96.714 68.143 111 68.143 111 96.714 96.714 96.714 96.714 111 25.286 111 25.286 96.714 11 96.714 11 82.429 39.571 82.429 39.571 96.714 82.429 96.714 82.429 68.143 25.286 68.143" fill="#ed1978" fill-rule="nonzero"/>
  </g>
 </g>
</svg>
